<svg class="diagram-root" style="background: #f5f6f6" xmlns="http://www.w3.org/2000/svg" xmlns:xlink="http://www.w3.org/1999/xlink"><style>.diagram-root { font-family: "Helvetica Neue", sans-serif; font-size: 12px; } .t { overflow: visible; } .t-bg { y: 40; fill: #fff;   } .th { fill: #005aa0;   } .tht { fill: #fff; font-size: 14px;  } .tf { fill: #323c46; overflow: visible; } .tf.pk { fill: #005aa0; font-weight: bold; } .tf.fk { font-weight: bold; } .ty { fill: #adb1b5; font-weight: normal; text-anchor: end; } .r { fill: transparent; stroke: #c3c3c3; stroke-width: 1; } .l { stroke: 1; } .i { fill: #c2c7ce; stroke: #c2c7ce; } .i.ix { fill: #afb3b6; stroke: #000; } .fa { fill: transparent; overflow: visible; } .fa .bg.hover { fill: #f7f7f7; } .c { cy: 12; r: 4; stroke: #d2d2dc; fill: #d2d2dc; } .hr { fill: transparent; stroke: #323c46; stroke-opacity: 0.035; stroke-width: 13; } .dc { stroke: #fa5a3c; fill: #fa5a3c; } .x { stroke: white; stroke-width: 1; } .hl .th { fill: #1b9bff; } .hl .tht {  } .fhl .bg { fill: #e7f4ff; } .fhls .bg {  } .r.hl { stroke: #1b9bff; } .dim { opacity: 0.25; }</style><g class="drawing-wrapper" transform="translate(-139.4444444444445, 7.222222222222214) scale(1,1)"><g class="rs"><path d="M 310.83 459.78 m -1, 0 a 1,1 0 1,0 2,0 a 1,1 0 1,0 -2,0 M 310.83 459.78 m -0.5, 0 a 0.5,0.5 0 1,0 1,0 a 0.5,0.5 0 1,0 -1,0  M310.83 459.78 L310.83 459.78 322.83 459.78 M316.83 465.78 L316.83 465.78 316.83 453.78 M322.83 459.78 Q 378.4 459.78, 433.97 413 T 545.11 366.22 M 557.11 366.22 m -1, 0 a 1,1 0 1,0 2,0 a 1,1 0 1,0 -2,0 M 557.11 366.22 m -0.5, 0 a 0.5,0.5 0 1,0 1,0 a 0.5,0.5 0 1,0 -1,0  M557.11 366.22 L557.11 366.22 545.11 366.22 M 557.11 372.22 m -1, 0 a 1,1 0 1,0 2,0 a 1,1 0 1,0 -2,0 M 557.11 372.22 m -0.5, 0 a 0.5,0.5 0 1,0 1,0 a 0.5,0.5 0 1,0 -1,0  M557.11 372.22 L557.11 372.22 550.11 366.22 557.11 360.22 M 557.11 360.22 m -1, 0 a 1,1 0 1,0 2,0 a 1,1 0 1,0 -2,0 M 557.11 360.22 m -0.5, 0 a 0.5,0.5 0 1,0 1,0 a 0.5,0.5 0 1,0 -1,0 " id="h2272962988" class="r"></path><path d="M 310.83 459.78 m -1, 0 a 1,1 0 1,0 2,0 a 1,1 0 1,0 -2,0 M 310.83 459.78 m -0.5, 0 a 0.5,0.5 0 1,0 1,0 a 0.5,0.5 0 1,0 -1,0  M310.83 459.78 L310.83 459.78 322.83 459.78 M316.83 465.78 L316.83 465.78 316.83 453.78 M322.83 459.78 Q 377.13 459.78, 431.42 269.78 T 540 79.78 M 552 79.78 m -1, 0 a 1,1 0 1,0 2,0 a 1,1 0 1,0 -2,0 M 552 79.78 m -0.5, 0 a 0.5,0.5 0 1,0 1,0 a 0.5,0.5 0 1,0 -1,0  M552 79.78 L552 79.78 540 79.78 M546 85.78 L546 85.78 546 73.78" id="h4262246250" class="r"></path><path d="M 322.06 182.89 m -1, 0 a 1,1 0 1,0 2,0 a 1,1 0 1,0 -2,0 M 322.06 182.89 m -0.5, 0 a 0.5,0.5 0 1,0 1,0 a 0.5,0.5 0 1,0 -1,0  M322.06 182.89 L322.06 182.89 334.06 182.89 M328.06 188.89 L328.06 188.89 328.06 176.89 M334.06 182.89 Q 385.54 182.89, 437.03 131.33 T 540 79.78 M 552 79.78 m -1, 0 a 1,1 0 1,0 2,0 a 1,1 0 1,0 -2,0 M 552 79.78 m -0.5, 0 a 0.5,0.5 0 1,0 1,0 a 0.5,0.5 0 1,0 -1,0  M552 79.78 L552 79.78 540 79.78 M546 85.78 L546 85.78 546 73.78" id="h1673620432" class="r"></path><path d="M 322.06 182.89 m -1, 0 a 1,1 0 1,0 2,0 a 1,1 0 1,0 -2,0 M 322.06 182.89 m -0.5, 0 a 0.5,0.5 0 1,0 1,0 a 0.5,0.5 0 1,0 -1,0  M322.06 182.89 L322.06 182.89 334.06 182.89 M328.06 188.89 L328.06 188.89 328.06 176.89 M334.06 182.89 Q 386.83 182.89, 439.59 274.56 T 545.11 366.22 M 557.11 366.22 m -1, 0 a 1,1 0 1,0 2,0 a 1,1 0 1,0 -2,0 M 557.11 366.22 m -0.5, 0 a 0.5,0.5 0 1,0 1,0 a 0.5,0.5 0 1,0 -1,0  M557.11 366.22 L557.11 366.22 545.11 366.22 M 557.11 372.22 m -1, 0 a 1,1 0 1,0 2,0 a 1,1 0 1,0 -2,0 M 557.11 372.22 m -0.5, 0 a 0.5,0.5 0 1,0 1,0 a 0.5,0.5 0 1,0 -1,0  M557.11 372.22 L557.11 372.22 550.11 366.22 557.11 360.22 M 557.11 360.22 m -1, 0 a 1,1 0 1,0 2,0 a 1,1 0 1,0 -2,0 M 557.11 360.22 m -0.5, 0 a 0.5,0.5 0 1,0 1,0 a 0.5,0.5 0 1,0 -1,0 " id="h1353453500" class="r"></path><path d="M 545.11 738.11 m -1, 0 a 1,1 0 1,0 2,0 a 1,1 0 1,0 -2,0 M 545.11 738.11 m -0.5, 0 a 0.5,0.5 0 1,0 1,0 a 0.5,0.5 0 1,0 -1,0  M545.11 738.11 L545.11 738.11 533.11 738.11 M539.11 744.11 L539.11 744.11 539.11 732.11 M533.11 738.11 C 483.11 738.11, 475.91 366.22, 545.11 366.22 M 557.11 366.22 m -1, 0 a 1,1 0 1,0 2,0 a 1,1 0 1,0 -2,0 M 557.11 366.22 m -0.5, 0 a 0.5,0.5 0 1,0 1,0 a 0.5,0.5 0 1,0 -1,0  M557.11 366.22 L557.11 366.22 545.11 366.22 M 557.11 372.22 m -1, 0 a 1,1 0 1,0 2,0 a 1,1 0 1,0 -2,0 M 557.11 372.22 m -0.5, 0 a 0.5,0.5 0 1,0 1,0 a 0.5,0.5 0 1,0 -1,0  M557.11 372.22 L557.11 372.22 550.11 366.22 557.11 360.22 M 557.11 360.22 m -1, 0 a 1,1 0 1,0 2,0 a 1,1 0 1,0 -2,0 M 557.11 360.22 m -0.5, 0 a 0.5,0.5 0 1,0 1,0 a 0.5,0.5 0 1,0 -1,0 " id="h3383792533" class="r"></path><path d="M 292.38 723.22 m -1, 0 a 1,1 0 1,0 2,0 a 1,1 0 1,0 -2,0 M 292.38 723.22 m -0.5, 0 a 0.5,0.5 0 1,0 1,0 a 0.5,0.5 0 1,0 -1,0  M292.38 723.22 L292.38 723.22 304.38 723.22 M298.38 729.22 L298.38 729.22 298.38 717.22 M304.38 723.22 Q 364.57 723.22, 424.75 544.72 T 545.11 366.22 M 557.11 366.22 m -1, 0 a 1,1 0 1,0 2,0 a 1,1 0 1,0 -2,0 M 557.11 366.22 m -0.5, 0 a 0.5,0.5 0 1,0 1,0 a 0.5,0.5 0 1,0 -1,0  M557.11 366.22 L557.11 366.22 545.11 366.22 M 557.11 372.22 m -1, 0 a 1,1 0 1,0 2,0 a 1,1 0 1,0 -2,0 M 557.11 372.22 m -0.5, 0 a 0.5,0.5 0 1,0 1,0 a 0.5,0.5 0 1,0 -1,0  M557.11 372.22 L557.11 372.22 550.11 366.22 557.11 360.22 M 557.11 360.22 m -1, 0 a 1,1 0 1,0 2,0 a 1,1 0 1,0 -2,0 M 557.11 360.22 m -0.5, 0 a 0.5,0.5 0 1,0 1,0 a 0.5,0.5 0 1,0 -1,0 " id="h1031874835" class="r"></path></g><g class="hrs"></g><g class="ts"><svg width="149.39" height="100" x="552" y="22.78" id="h3708248841" class="t"><rect height="40" width="149.39" class="th"></rect><text x="13" y="25" class="tht">Departments</text><rect height="60" width="149.39" class="t-bg"></rect><text x="13" y="61" class="tf pk">dept_no<tspan x="136.39" class="ty">varchar</tspan></text><path d="M7,14A2,2 0 0,1 5,12A2,2 0 0,1 7,10A2,2 0 0,1 9,12A2,2 0 0,1 7,14M12.65,10C11.83,7.67 9.61,6 7, 6A6, 6 0 0, 0 1, 12A6, 6 0 0, 0 7, 18C9.61, 18 11.83, 16.33 12.65, 14H17V18H21V14H23V10H12.65Z" class="i pk" transform="translate(76.37632812499999, 48) scale(0.65)"></path><text x="13" y="86" class="tf">dept_name<tspan x="136.39" class="ty">varchar</tspan></text></svg><svg width="149.39" height="175" x="161.44" y="302.78" id="h3353995054" class="t"><rect height="40" width="149.39" class="th"></rect><text x="13" y="25" class="tht">Dept_Emp</text><rect height="135" width="149.39" class="t-bg"></rect><text x="13" y="61" class="tf pk">emp_no<tspan x="136.39" class="ty">int</tspan></text><path d="M7,14A2,2 0 0,1 5,12A2,2 0 0,1 7,10A2,2 0 0,1 9,12A2,2 0 0,1 7,14M12.65,10C11.83,7.67 9.61,6 7, 6A6, 6 0 0, 0 1, 12A6, 6 0 0, 0 7, 18C9.61, 18 11.83, 16.33 12.65, 14H17V18H21V14H23V10H12.65Z" class="i pk" transform="translate(103.71617187499999, 48) scale(0.65)"></path><text x="13" y="86" class="tf pk">dept_no<tspan x="136.39" class="ty">varchar</tspan></text><path d="M7,14A2,2 0 0,1 5,12A2,2 0 0,1 7,10A2,2 0 0,1 9,12A2,2 0 0,1 7,14M12.65,10C11.83,7.67 9.61,6 7, 6A6, 6 0 0, 0 1, 12A6, 6 0 0, 0 7, 18C9.61, 18 11.83, 16.33 12.65, 14H17V18H21V14H23V10H12.65Z" class="i pk" transform="translate(76.37632812499999, 73) scale(0.65)"></path><text x="13" y="111" class="tf">from_date<tspan x="136.39" class="ty">int</tspan></text><text x="13" y="136" class="tf">to_date<tspan x="136.39" class="ty">int</tspan></text><text x="13" y="161" class="tf">...</text></svg><svg width="149.39" height="175" x="172.67" y="25.89" id="h754932316" class="t"><rect height="40" width="149.39" class="th"></rect><text x="13" y="25" class="tht">Dept_Manager</text><rect height="135" width="149.39" class="t-bg"></rect><text x="13" y="61" class="tf pk">dept_no<tspan x="136.39" class="ty">varchar</tspan></text><path d="M7,14A2,2 0 0,1 5,12A2,2 0 0,1 7,10A2,2 0 0,1 9,12A2,2 0 0,1 7,14M12.65,10C11.83,7.67 9.61,6 7, 6A6, 6 0 0, 0 1, 12A6, 6 0 0, 0 7, 18C9.61, 18 11.83, 16.33 12.65, 14H17V18H21V14H23V10H12.65Z" class="i pk" transform="translate(76.37632812499999, 48) scale(0.65)"></path><text x="13" y="86" class="tf pk">emp_no<tspan x="136.39" class="ty">int</tspan></text><path d="M7,14A2,2 0 0,1 5,12A2,2 0 0,1 7,10A2,2 0 0,1 9,12A2,2 0 0,1 7,14M12.65,10C11.83,7.67 9.61,6 7, 6A6, 6 0 0, 0 1, 12A6, 6 0 0, 0 7, 18C9.61, 18 11.83, 16.33 12.65, 14H17V18H21V14H23V10H12.65Z" class="i pk" transform="translate(103.71617187499999, 73) scale(0.65)"></path><text x="13" y="111" class="tf">from_date<tspan x="136.39" class="ty">int</tspan></text><text x="13" y="136" class="tf">to_date<tspan x="136.39" class="ty">int</tspan></text><text x="13" y="161" class="tf">...</text></svg><svg width="142.04" height="200" x="557.11" y="309.22" id="h3299212598" class="t"><rect height="40" width="142.04" class="th"></rect><text x="13" y="25" class="tht">Employees</text><rect height="160" width="142.04" class="t-bg"></rect><text x="13" y="61" class="tf pk">emp_no<tspan x="129.04" class="ty">int</tspan></text><path d="M7,14A2,2 0 0,1 5,12A2,2 0 0,1 7,10A2,2 0 0,1 9,12A2,2 0 0,1 7,14M12.65,10C11.83,7.67 9.61,6 7, 6A6, 6 0 0, 0 1, 12A6, 6 0 0, 0 7, 18C9.61, 18 11.83, 16.33 12.65, 14H17V18H21V14H23V10H12.65Z" class="i pk" transform="translate(96.36617187499999, 48) scale(0.65)"></path><text x="13" y="86" class="tf">birth_date<tspan x="129.04" class="ty">date</tspan></text><text x="13" y="111" class="tf">first_name<tspan x="129.04" class="ty">varchar</tspan></text><text x="13" y="136" class="tf">last_name<tspan x="129.04" class="ty">varchar</tspan></text><text x="13" y="161" class="tf">gender<tspan x="129.04" class="ty">varchar</tspan></text><text x="13" y="186" class="tf">hire_date<tspan x="129.04" class="ty">date</tspan></text></svg><svg width="123.38" height="175" x="545.11" y="581.11" id="h3858243705" class="t"><rect height="40" width="123.38" class="th"></rect><text x="13" y="25" class="tht">Salaries</text><rect height="135" width="123.38" class="t-bg"></rect><text x="13" y="61" class="tf pk">emp_no<tspan x="110.38" class="ty">int</tspan></text><path d="M7,14A2,2 0 0,1 5,12A2,2 0 0,1 7,10A2,2 0 0,1 9,12A2,2 0 0,1 7,14M12.65,10C11.83,7.67 9.61,6 7, 6A6, 6 0 0, 0 1, 12A6, 6 0 0, 0 7, 18C9.61, 18 11.83, 16.33 12.65, 14H17V18H21V14H23V10H12.65Z" class="i pk" transform="translate(77.706171875, 48) scale(0.65)"></path><text x="13" y="86" class="tf">salary<tspan x="110.38" class="ty">decimal</tspan></text><text x="13" y="111" class="tf">from_date<tspan x="110.38" class="ty">date</tspan></text><text x="13" y="136" class="tf">to_date<tspan x="110.38" class="ty">date</tspan></text><text x="13" y="161" class="tf">...</text></svg><svg width="123.38" height="175" x="169" y="566.22" id="h3517680912" class="t"><rect height="40" width="123.38" class="th"></rect><text x="13" y="25" class="tht">Titles</text><rect height="135" width="123.38" class="t-bg"></rect><text x="13" y="61" class="tf pk">emp_no<tspan x="110.38" class="ty">int</tspan></text><path d="M7,14A2,2 0 0,1 5,12A2,2 0 0,1 7,10A2,2 0 0,1 9,12A2,2 0 0,1 7,14M12.65,10C11.83,7.67 9.61,6 7, 6A6, 6 0 0, 0 1, 12A6, 6 0 0, 0 7, 18C9.61, 18 11.83, 16.33 12.65, 14H17V18H21V14H23V10H12.65Z" class="i pk" transform="translate(77.706171875, 48) scale(0.65)"></path><text x="13" y="86" class="tf">title<tspan x="110.38" class="ty">varchar</tspan></text><text x="13" y="111" class="tf">from_date<tspan x="110.38" class="ty">date</tspan></text><text x="13" y="136" class="tf">to_date<tspan x="110.38" class="ty">date</tspan></text><text x="13" y="161" class="tf">...</text></svg></g></g><text class="qdbd-link" x="10" y="20">www.quickdatabasediagrams.com</text></svg>